<svg width="165" height="153" viewBox="0 0 165 153" fill="none" xmlns="http://www.w3.org/2000/svg">
<path d="M57 24L67 20L54 5.5L57 24Z" fill="#EF7F1A"/>
<path d="M74.5 20L83.5 19L77 6L74.5 20Z" fill="#EF7F1A"/>
<path d="M91.5 19L101 21L98.5 2L91.5 19Z" fill="#EF7F1A"/>
<path d="M108 23.5L116.5 27.5L119.5 13L108 23.5Z" fill="#EF7F1A"/>
<path d="M130 37.5L123 31L140.5 19.5L130 37.5Z" fill="#EF7F1A"/>
<path d="M135.5 43.5L140.5 51.5L151 39L135.5 43.5Z" fill="#EF7F1A"/>
<path d="M144 58L147 67L163 54.5L144 58Z" fill="#EF7F1A"/>
<path d="M148 72.5L149 81L162.5 77L148 72.5Z" fill="#EF7F1A"/>
<path d="M42 33.5L50.5 27.5L37.5 18L42 33.5Z" fill="#EF7F1A"/>
<path d="M30 46L36.5 38.5L18 29L30 46Z" fill="#EF7F1A"/>
<path d="M22 62L26 53.5L11.5 51L22 62Z" fill="#EF7F1A"/>
<path d="M19 78L20 69L1 72L19 78Z" fill="#EF7F1A"/>
<path d="M146 81.5005H137C135 14 35 11.4999 31 81.5005H22C23.5 0.999977 146 2.49998 146 81.5005Z" fill="#EF7F1A"/>
<path fill-rule="evenodd" clip-rule="evenodd" d="M46.5 56.5005V109.5H60.5V87.5005H63.5C63.2399 103.847 65.2266 110.392 79 109.5C91.3046 109.311 95.5072 105.465 95 87.5005V74.5005C94.0935 63.4156 94.4808 56.521 79 56.5005C65.7815 56.6183 63.4671 61.6011 63.5 74.5005H60.5V56.5005H46.5ZM76.5 67.0005C76.5 64.0005 77 63.0005 79 63.0005C81 63.0005 81.5 64.0005 81.5 67.0005V99.0004C81.5 102.5 81 103 79 103C77 103 76.5 102.5 76.5 99.0004V67.0005Z" fill="#E31E24"/>
<path d="M100 109.5H113V66.5005H123V56.5005H100V109.5Z" fill="#E31E24"/>
<path d="M31 83.5H11.5V87.5005L22 91.5L25.5 103L18 110L22 118L32 117L39.5 125L36 135.5L43 141.5L53.5 134.5L63.5 140.5V150L72.5 152L79 143.5H91L96 151.5L105 149V139.5L116 133.5L123.5 140.5L131.5 135.5L126 126.5L135 116.5L144.5 120L149.5 111.5L141 105L146 91.5L155.5 90V83.5H137C137 150 31 150 31 83.5Z" fill="#393185"/>
<path d="M57 24L67 20L54 5.5L57 24Z" stroke="black"/>
<path d="M74.5 20L83.5 19L77 6L74.5 20Z" stroke="black"/>
<path d="M91.5 19L101 21L98.5 2L91.5 19Z" stroke="black"/>
<path d="M108 23.5L116.5 27.5L119.5 13L108 23.5Z" stroke="black"/>
<path d="M130 37.5L123 31L140.5 19.5L130 37.5Z" stroke="black"/>
<path d="M135.5 43.5L140.5 51.5L151 39L135.5 43.5Z" stroke="black"/>
<path d="M144 58L147 67L163 54.5L144 58Z" stroke="black"/>
<path d="M148 72.5L149 81L162.5 77L148 72.5Z" stroke="black"/>
<path d="M42 33.5L50.5 27.5L37.5 18L42 33.5Z" stroke="black"/>
<path d="M30 46L36.5 38.5L18 29L30 46Z" stroke="black"/>
<path d="M22 62L26 53.5L11.5 51L22 62Z" stroke="black"/>
<path d="M19 78L20 69L1 72L19 78Z" stroke="black"/>
<path d="M146 81.5005H137C135 14 35 11.4999 31 81.5005H22C23.5 0.999977 146 2.49998 146 81.5005Z" stroke="black"/>
<path fill-rule="evenodd" clip-rule="evenodd" d="M46.5 56.5005V109.5H60.5V87.5005H63.5C63.2399 103.847 65.2266 110.392 79 109.5C91.3046 109.311 95.5072 105.465 95 87.5005V74.5005C94.0935 63.4156 94.4808 56.521 79 56.5005C65.7815 56.6183 63.4671 61.6011 63.5 74.5005H60.5V56.5005H46.5ZM76.5 67.0005C76.5 64.0005 77 63.0005 79 63.0005C81 63.0005 81.5 64.0005 81.5 67.0005V99.0004C81.5 102.5 81 103 79 103C77 103 76.5 102.5 76.5 99.0004V67.0005Z" stroke="black"/>
<path d="M100 109.5H113V66.5005H123V56.5005H100V109.5Z" stroke="black"/>
<path d="M31 83.5H11.5V87.5005L22 91.5L25.5 103L18 110L22 118L32 117L39.5 125L36 135.5L43 141.5L53.5 134.5L63.5 140.5V150L72.5 152L79 143.5H91L96 151.5L105 149V139.5L116 133.5L123.5 140.5L131.5 135.5L126 126.5L135 116.5L144.5 120L149.5 111.5L141 105L146 91.5L155.5 90V83.5H137C137 150 31 150 31 83.5Z" stroke="black"/>
</svg>
